<svg width="24" height="25" viewBox="0 0 24 25" fill="none" xmlns="http://www.w3.org/2000/svg">
<path d="M18.71 19.8528C17.88 21.0928 17 22.3028 15.66 22.3228C14.32 22.3528 13.89 21.5328 12.37 21.5328C10.84 21.5328 10.37 22.3028 9.09997 22.3528C7.78997 22.4028 6.79997 21.0328 5.95997 19.8228C4.24997 17.3528 2.93997 12.8028 4.69997 9.74278C5.56997 8.22278 7.12997 7.26278 8.81997 7.23278C10.1 7.21278 11.32 8.10278 12.11 8.10278C12.89 8.10278 14.37 7.03278 15.92 7.19278C16.57 7.22278 18.39 7.45278 19.56 9.17278C19.47 9.23278 17.39 10.4528 17.41 12.9828C17.44 16.0028 20.06 17.0128 20.09 17.0228C20.06 17.0928 19.67 18.4628 18.71 19.8528ZM13 3.85278C13.73 3.02278 14.94 2.39278 15.94 2.35278C16.07 3.52278 15.6 4.70278 14.9 5.54278C14.21 6.39278 13.07 7.05278 11.95 6.96278C11.8 5.81278 12.36 4.61278 13 3.85278Z" fill="white"/>
</svg>
