<svg width="24" height="24" viewBox="0 0 24 24" fill="none" xmlns="http://www.w3.org/2000/svg">
<path d="M20.753 4.342C20.9272 4.54166 21.0151 4.80229 20.9972 5.06665C20.9794 5.33102 20.8574 5.57751 20.658 5.752L4.65803 19.752C4.55989 19.8428 4.44456 19.9129 4.31884 19.9584C4.19313 20.0038 4.05958 20.0236 3.9261 20.0165C3.79261 20.0094 3.6619 19.9756 3.54169 19.9172C3.42147 19.8587 3.3142 19.7768 3.22621 19.6761C3.13822 19.5755 3.0713 19.4583 3.0294 19.3313C2.9875 19.2044 2.97147 19.0703 2.98227 18.9371C2.99307 18.8039 3.03047 18.6742 3.09226 18.5556C3.15405 18.4371 3.23898 18.3321 3.34203 18.247L19.342 4.247C19.5417 4.0728 19.8023 3.98496 20.0667 4.00277C20.331 4.02059 20.5785 4.14259 20.753 4.342ZM20.753 10.717C20.9272 10.9167 21.0151 11.1773 20.9972 11.4417C20.9794 11.706 20.8574 11.9525 20.658 12.127L11.944 19.753C11.8451 19.8395 11.7302 19.9056 11.6057 19.9477C11.4813 19.9897 11.3498 20.0069 11.2187 19.9981C11.0876 19.9893 10.9596 19.9548 10.8418 19.8965C10.7241 19.8383 10.619 19.7574 10.5325 19.6585C10.4461 19.5596 10.3799 19.4447 10.3378 19.3202C10.2958 19.1958 10.2787 19.0642 10.2874 18.9332C10.2962 18.8021 10.3307 18.674 10.389 18.5563C10.4473 18.4386 10.5281 18.3335 10.627 18.247L19.341 10.622C19.4399 10.5354 19.5549 10.4692 19.6795 10.4271C19.804 10.3851 19.9356 10.368 20.0667 10.3768C20.1979 10.3856 20.326 10.4202 20.4437 10.4786C20.5615 10.5369 20.6666 10.618 20.753 10.717ZM19.341 16.497C19.5321 16.3273 19.7809 16.2373 20.0364 16.2453C20.2918 16.2534 20.5345 16.3589 20.7145 16.5402C20.8946 16.7216 20.9984 16.965 21.0046 17.2204C21.0108 17.4759 20.919 17.7241 20.748 17.914L20.658 18.003L18.658 19.753C18.4666 19.9208 18.2184 20.0092 17.9641 20.0004C17.7097 19.9915 17.4683 19.886 17.289 19.7053C17.1098 19.5246 17.0061 19.2824 16.9993 19.028C16.9924 18.7736 17.0828 18.5261 17.252 18.336L17.342 18.247L19.341 16.497ZM13.468 4.342C13.6423 4.54153 13.7304 4.80208 13.7127 5.06645C13.6951 5.33081 13.5733 5.57737 13.374 5.752L4.66002 13.378C4.56114 13.4645 4.44619 13.5306 4.32174 13.5727C4.19729 13.6147 4.06577 13.6319 3.9347 13.6231C3.80363 13.6143 3.67558 13.5798 3.55784 13.5215C3.44011 13.4633 3.335 13.3824 3.24852 13.2835C3.16205 13.1846 3.0959 13.0697 3.05385 12.9452C3.0118 12.8208 2.99467 12.6892 3.00344 12.5582C3.01222 12.4271 3.04672 12.299 3.10499 12.1813C3.16326 12.0636 3.24414 11.9585 3.34302 11.872L12.057 4.247C12.2567 4.0728 12.5173 3.98496 12.7817 4.00277C13.046 4.02059 13.2925 4.14259 13.467 4.342H13.468ZM5.77003 4.247C5.96143 4.07924 6.2096 3.99077 6.46397 3.99963C6.71833 4.00849 6.95975 4.11401 7.13902 4.29468C7.31829 4.47535 7.42192 4.71758 7.42879 4.97201C7.43567 5.22643 7.34527 5.47391 7.17603 5.664L7.08703 5.753L4.66002 7.878C4.46955 8.05212 4.21913 8.14587 3.96113 8.13963C3.70314 8.13339 3.45754 8.02765 3.2757 7.84452C3.09387 7.66139 2.98987 7.41506 2.98545 7.15702C2.98104 6.89899 3.07656 6.64924 3.25203 6.46L3.34203 6.371L5.77003 4.247Z" fill="black"/>
</svg>
