<svg width="24" height="24" viewBox="0 0 24 24" fill="none" xmlns="http://www.w3.org/2000/svg">
<path d="M11.7001 7.79989C11.9388 7.79989 12.1677 7.70507 12.3365 7.53629C12.5053 7.3675 12.6001 7.13859 12.6001 6.89989C12.6001 6.6612 12.5053 6.43228 12.3365 6.26349C12.1677 6.09471 11.9388 5.99989 11.7001 5.99989C11.4614 5.99989 11.2325 6.09471 11.0637 6.26349C10.8949 6.43228 10.8001 6.6612 10.8001 6.89989C10.8001 7.13859 10.8949 7.3675 11.0637 7.53629C11.2325 7.70507 11.4614 7.79989 11.7001 7.79989ZM15.3001 8.99989C15.5388 8.99989 15.7677 8.90507 15.9365 8.73629C16.1053 8.5675 16.2001 8.33859 16.2001 8.09989C16.2001 7.8612 16.1053 7.63228 15.9365 7.46349C15.7677 7.29471 15.5388 7.19989 15.3001 7.19989C15.0614 7.19989 14.8325 7.29471 14.6637 7.46349C14.4949 7.63228 14.4001 7.8612 14.4001 8.09989C14.4001 8.33859 14.4949 8.5675 14.6637 8.73629C14.8325 8.90507 15.0614 8.99989 15.3001 8.99989ZM18.3001 10.7999C18.3001 11.0386 18.2053 11.2675 18.0365 11.4363C17.8677 11.6051 17.6388 11.6999 17.4001 11.6999C17.1614 11.6999 16.9325 11.6051 16.7637 11.4363C16.5949 11.2675 16.5001 11.0386 16.5001 10.7999C16.5001 10.5612 16.5949 10.3323 16.7637 10.1635C16.9325 9.99471 17.1614 9.89989 17.4001 9.89989C17.6388 9.89989 17.8677 9.99471 18.0365 10.1635C18.2053 10.3323 18.3001 10.5612 18.3001 10.7999ZM17.4001 15.2999C17.6388 15.2999 17.8677 15.2051 18.0365 15.0363C18.2053 14.8675 18.3001 14.6386 18.3001 14.3999C18.3001 14.1612 18.2053 13.9323 18.0365 13.7635C17.8677 13.5947 17.6388 13.4999 17.4001 13.4999C17.1614 13.4999 16.9325 13.5947 16.7637 13.7635C16.5949 13.9323 16.5001 14.1612 16.5001 14.3999C16.5001 14.6386 16.5949 14.8675 16.7637 15.0363C16.9325 15.2051 17.1614 15.2999 17.4001 15.2999ZM15.9001 16.7999C15.9001 16.9181 15.8768 17.0351 15.8316 17.1443C15.7864 17.2535 15.7201 17.3527 15.6365 17.4363C15.5529 17.5199 15.4537 17.5862 15.3445 17.6314C15.2353 17.6766 15.1183 17.6999 15.0001 17.6999C14.8819 17.6999 14.7649 17.6766 14.6557 17.6314C14.5465 17.5862 14.4473 17.5199 14.3637 17.4363C14.2801 17.3527 14.2138 17.2535 14.1686 17.1443C14.1234 17.0351 14.1001 16.9181 14.1001 16.7999C14.1001 16.5612 14.1949 16.3323 14.3637 16.1635C14.5325 15.9947 14.7614 15.8999 15.0001 15.8999C15.2388 15.8999 15.4677 15.9947 15.6365 16.1635C15.8053 16.3323 15.9001 16.5612 15.9001 16.7999ZM16.4365 3.59029C13.1317 1.89229 9.7717 2.05429 6.9241 3.79909C5.4721 4.68949 3.9037 6.56269 3.0193 8.47069C2.5753 9.43069 2.2789 10.4459 2.2825 11.3915C2.2873 12.3527 2.6041 13.2707 3.4081 13.9259C4.1401 14.5235 4.7785 14.8235 5.3953 14.8535C6.0169 14.8847 6.5017 14.6327 6.8809 14.4095L7.1173 14.2667C7.4077 14.0903 7.6465 13.9451 7.9453 13.8515C8.2813 13.7435 8.7097 13.7051 9.3313 13.8947C9.5593 13.9643 9.6985 14.0675 9.7945 14.1875C9.8977 14.3147 9.9805 14.4923 10.0417 14.7467C10.1041 15.0023 10.1377 15.3035 10.1617 15.6587C10.1725 15.7907 10.1809 15.9431 10.1893 16.1015C10.2037 16.3319 10.2169 16.5779 10.2361 16.8047C10.3009 17.6087 10.4401 18.5279 10.9249 19.3631C11.4217 20.2187 12.2449 20.9267 13.5685 21.3791C15.4909 22.0367 17.2477 21.5027 18.6157 20.4191C19.9669 19.3499 20.9629 17.7311 21.4609 16.1123C23.0389 10.9847 21.2077 6.04069 16.4365 3.59029ZM7.5505 4.82269C10.0285 3.30469 12.9409 3.14269 15.8881 4.65709C20.0965 6.81949 21.7357 11.1371 20.3137 15.7595C19.8745 17.1875 19.0009 18.5843 17.8705 19.4795C16.7557 20.3615 15.4189 20.7431 13.9573 20.2439C12.8725 19.8719 12.2965 19.3355 11.9617 18.7607C11.6161 18.1643 11.4937 17.4671 11.4313 16.7063C11.4133 16.4795 11.4013 16.2743 11.3893 16.0655L11.3593 15.5735C11.3378 15.2001 11.2873 14.829 11.2081 14.4635C11.125 14.0887 10.9612 13.7365 10.7281 13.4315C10.4568 13.1026 10.0919 12.864 9.6817 12.7475C8.8393 12.4895 8.1637 12.5231 7.5817 12.7067C7.1317 12.8507 6.7441 13.0871 6.4465 13.2707L6.2713 13.3751C5.9293 13.5779 5.7049 13.6679 5.4553 13.6559C5.1997 13.6439 4.8037 13.5143 4.1665 12.9959C3.7045 12.6191 3.4861 12.0803 3.4825 11.3879C3.4801 10.6787 3.7057 9.84229 4.1077 8.97589C4.9165 7.23229 6.3421 5.56309 7.5517 4.82269" fill="#1E1E1E"/>
</svg>
