<svg width="28" height="28" viewBox="0 0 28 28" fill="none" xmlns="http://www.w3.org/2000/svg">
<rect width="28" height="28" rx="14" fill="#E2A9A9"/>
<path d="M11.5499 17.15L20.0249 8.675C20.2249 8.475 20.4583 8.375 20.7249 8.375C20.9916 8.375 21.2249 8.475 21.4249 8.675C21.6249 8.875 21.7249 9.11267 21.7249 9.388C21.7249 9.66333 21.6249 9.90067 21.4249 10.1L12.2499 19.3C12.0499 19.5 11.8166 19.6 11.5499 19.6C11.2833 19.6 11.0499 19.5 10.8499 19.3L6.54994 15C6.34994 14.8 6.25394 14.5627 6.26194 14.288C6.26994 14.0133 6.37427 13.7757 6.57494 13.575C6.7756 13.3743 7.01327 13.2743 7.28794 13.275C7.5626 13.2757 7.79994 13.3757 7.99994 13.575L11.5499 17.15Z" fill="white"/>
</svg>
