<svg width="24" height="24" viewBox="0 0 24 24" fill="none" xmlns="http://www.w3.org/2000/svg">
<path d="M4 7.19995C4 4.95835 5.7584 3.19995 8 3.19995H19.9984C20.2106 3.19974 20.4141 3.28382 20.5643 3.4337C20.7145 3.58358 20.799 3.78698 20.7992 3.99915C20.7994 4.21132 20.7153 4.41489 20.5655 4.56507C20.4156 4.71525 20.2122 4.79974 20 4.79995H13.9072L13.448 6.16795L11.7488 11.2H13.6C13.8122 11.2 14.0157 11.2842 14.1657 11.4343C14.3157 11.5843 14.4 11.7878 14.4 12C14.4 12.2121 14.3157 12.4156 14.1657 12.5656C14.0157 12.7157 13.8122 12.8 13.6 12.8H11.2064C10.6576 14.4239 10.0998 16.0447 9.5328 17.6624C9.0176 19.1024 8.3328 19.9776 7.4688 20.4448C6.6608 20.8816 5.8272 20.88 5.2544 20.88H5.2C4.96661 20.88 4.74278 20.7872 4.57775 20.6222C4.41271 20.4572 4.32 20.2333 4.32 20C4.32 19.7666 4.41271 19.5427 4.57775 19.3777C4.74278 19.2127 4.96661 19.12 5.2 19.12C5.8272 19.12 6.2464 19.104 6.6304 18.896C6.9824 18.7056 7.448 18.264 7.8752 17.0688C8.1712 16.2416 8.7264 14.6256 9.3472 12.8H7.2C6.98783 12.8 6.78434 12.7157 6.63431 12.5656C6.48429 12.4156 6.4 12.2121 6.4 12C6.4 11.7878 6.48429 11.5843 6.63431 11.4343C6.78434 11.2842 6.98783 11.2 7.2 11.2H9.8912C10.5231 9.33628 11.1524 7.47174 11.7792 5.60635L12.0528 4.79995H8C6.6416 4.79995 5.6 5.84155 5.6 7.19995C5.6 7.41212 5.51571 7.61561 5.36569 7.76564C5.21566 7.91567 5.01217 7.99995 4.8 7.99995C4.58783 7.99995 4.38434 7.91567 4.23431 7.76564C4.08429 7.61561 4 7.41212 4 7.19995Z" fill="#1E1E1E"/>
</svg>
