<svg width="24" height="24" viewBox="0 0 24 24" fill="none" xmlns="http://www.w3.org/2000/svg">
<path d="M15.06 9.82995C15.6238 9.64229 16.2332 9.64229 16.797 9.82995C17.165 9.95295 17.469 10.168 17.764 10.426C18.046 10.674 18.366 11.005 18.749 11.401C19.2063 11.8763 19.6643 12.351 20.123 12.825C20.571 13.287 20.751 13.775 20.749 14.427C20.743 16.086 20.708 17.224 20.232 18.157C19.7764 19.0504 19.0497 19.7768 18.156 20.232C16.811 20.918 15.091 20.75 13.633 20.75H10.367C9.27499 20.75 8.40899 20.75 7.71199 20.693C6.99799 20.635 6.39499 20.513 5.84399 20.233C4.95013 19.7775 4.22341 19.0508 3.76799 18.157C3.47299 17.578 3.35799 16.948 3.29799 16.181C3.20999 15.021 4.19399 14.082 4.95099 13.319C5.25799 13.009 5.58199 12.749 5.98399 12.601C6.59391 12.3779 7.26308 12.3779 7.87299 12.601C8.27499 12.749 8.59899 13.009 8.90599 13.319C9.20399 13.619 9.53799 14.019 9.94199 14.504C9.97699 14.547 10.032 14.587 10.083 14.534L13.108 11.401C13.492 11.005 13.811 10.674 14.093 10.426C14.388 10.168 14.693 9.95295 15.06 9.82995ZM15.083 11.553C14.853 11.755 14.576 12.041 14.166 12.466L11.162 15.576C11.0079 15.7357 10.8218 15.8611 10.616 15.9441C10.4101 16.0271 10.1891 16.0658 9.96729 16.0577C9.74549 16.0496 9.52788 15.9949 9.32865 15.897C9.12942 15.7992 8.95304 15.6605 8.81099 15.49C8.37999 14.974 8.08699 14.623 7.84099 14.376C7.60099 14.133 7.46099 14.048 7.35799 14.01C7.08065 13.9085 6.77633 13.9085 6.49899 14.01C6.39599 14.048 6.25699 14.133 6.01599 14.376C5.64599 14.748 5.31899 15.163 4.98399 15.566C4.82299 15.759 4.77899 15.861 4.79699 16.106C4.84699 16.762 4.94399 17.161 5.10399 17.476C5.41555 18.0873 5.91262 18.5844 6.52399 18.896C6.82899 19.051 7.21399 19.147 7.83399 19.198C8.46399 19.249 9.26799 19.25 10.4 19.25H13.6C14.792 19.25 16.365 19.462 17.476 18.896C18.0874 18.5844 18.5844 18.0873 18.896 17.476C19.178 16.921 19.242 16.173 19.249 14.422C19.25 14.148 19.208 14.036 19.011 13.833L17.691 12.466C17.281 12.041 17.005 11.756 16.774 11.553C16.259 11.101 15.62 11.081 15.083 11.553Z" fill="#1E1E1E"/>
<path d="M10.367 3.25H13.633C14.725 3.25 15.591 3.25 16.288 3.307C17.002 3.365 17.605 3.487 18.157 3.767C19.0506 4.22284 19.777 4.94992 20.232 5.844C20.513 6.394 20.635 6.998 20.693 7.712C20.75 8.409 20.75 9.275 20.75 10.367V13.633C20.75 14.725 20.75 15.591 20.693 16.288C20.635 17.002 20.513 17.605 20.233 18.157C19.7772 19.0506 19.0501 19.777 18.156 20.232C17.606 20.513 17.002 20.635 16.288 20.693C15.591 20.75 14.725 20.75 13.633 20.75H10.367C9.275 20.75 8.409 20.75 7.712 20.693C6.998 20.635 6.395 20.513 5.844 20.233C4.95014 19.7776 4.22341 19.0509 3.768 18.157C3.487 17.605 3.365 17.002 3.307 16.288C3.25 15.591 3.25 14.725 3.25 13.633V10.367C3.25 9.275 3.25 8.409 3.307 7.712C3.365 6.998 3.487 6.395 3.767 5.844C4.22267 4.94999 4.94977 4.22324 5.844 3.768C6.394 3.487 6.998 3.365 7.712 3.307C8.409 3.25 9.275 3.25 10.367 3.25ZM7.834 4.802C7.214 4.852 6.829 4.949 6.524 5.104C5.91263 5.41556 5.41556 5.91263 5.104 6.524C4.949 6.829 4.853 7.214 4.802 7.834C4.751 8.464 4.75 9.268 4.75 10.4V13.6C4.75 14.733 4.75 15.537 4.802 16.166C4.852 16.786 4.949 17.171 5.104 17.476C5.41556 18.0874 5.91263 18.5844 6.524 18.896C6.829 19.051 7.214 19.147 7.834 19.198C8.464 19.249 9.268 19.25 10.4 19.25H13.6C14.733 19.25 15.537 19.25 16.166 19.198C16.786 19.148 17.171 19.051 17.476 18.896C18.0874 18.5844 18.5844 18.0874 18.896 17.476C19.051 17.171 19.147 16.786 19.198 16.166C19.249 15.536 19.25 14.732 19.25 13.6V10.4C19.25 9.268 19.25 8.463 19.198 7.834C19.148 7.214 19.051 6.829 18.896 6.524C18.5844 5.91263 18.0874 5.41556 17.476 5.104C17.171 4.949 16.786 4.853 16.166 4.802C15.536 4.751 14.732 4.75 13.6 4.75H10.4C9.268 4.75 8.463 4.75 7.834 4.802Z" fill="#1E1E1E"/>
<path d="M10 7.75C9.66848 7.75 9.35054 7.8817 9.11612 8.11612C8.8817 8.35054 8.75 8.66848 8.75 9C8.75 9.33152 8.8817 9.64946 9.11612 9.88388C9.35054 10.1183 9.66848 10.25 10 10.25C10.3315 10.25 10.6495 10.1183 10.8839 9.88388C11.1183 9.64946 11.25 9.33152 11.25 9C11.25 8.66848 11.1183 8.35054 10.8839 8.11612C10.6495 7.8817 10.3315 7.75 10 7.75ZM7.25 9C7.25 8.27065 7.53973 7.57118 8.05546 7.05546C8.57118 6.53973 9.27065 6.25 10 6.25C10.7293 6.25 11.4288 6.53973 11.9445 7.05546C12.4603 7.57118 12.75 8.27065 12.75 9C12.75 9.72935 12.4603 10.4288 11.9445 10.9445C11.4288 11.4603 10.7293 11.75 10 11.75C9.27065 11.75 8.57118 11.4603 8.05546 10.9445C7.53973 10.4288 7.25 9.72935 7.25 9Z" fill="#1E1E1E"/>
</svg>
