<svg width="25" height="24" viewBox="0 0 25 24" fill="none" xmlns="http://www.w3.org/2000/svg">
<path d="M6.5 22C5.95 22 5.47933 21.8043 5.088 21.413C4.69667 21.0217 4.50067 20.5507 4.5 20V10C4.5 9.45 4.696 8.97933 5.088 8.588C5.48 8.19667 5.95067 8.00067 6.5 8H7.5V6C7.5 4.61667 7.98767 3.43767 8.963 2.463C9.93833 1.48833 11.1173 1.00067 12.5 1C13.8827 0.999334 15.062 1.487 16.038 2.463C17.014 3.439 17.5013 4.618 17.5 6V8H18.5C19.05 8 19.521 8.196 19.913 8.588C20.305 8.98 20.5007 9.45067 20.5 10V20C20.5 20.55 20.3043 21.021 19.913 21.413C19.5217 21.805 19.0507 22.0007 18.5 22H6.5ZM6.5 20H18.5V10H6.5V20ZM12.5 17C13.05 17 13.521 16.8043 13.913 16.413C14.305 16.0217 14.5007 15.5507 14.5 15C14.4993 14.4493 14.3037 13.9787 13.913 13.588C13.5223 13.1973 13.0513 13.0013 12.5 13C11.9487 12.9987 11.478 13.1947 11.088 13.588C10.698 13.9813 10.502 14.452 10.5 15C10.498 15.548 10.694 16.019 11.088 16.413C11.482 16.807 11.9527 17.0027 12.5 17ZM9.5 8H15.5V6C15.5 5.16667 15.2083 4.45833 14.625 3.875C14.0417 3.29167 13.3333 3 12.5 3C11.6667 3 10.9583 3.29167 10.375 3.875C9.79167 4.45833 9.5 5.16667 9.5 6V8Z" fill="black"/>
</svg>
