<svg width="24" height="24" viewBox="0 0 24 24" fill="none" xmlns="http://www.w3.org/2000/svg">
<path fill-rule="evenodd" clip-rule="evenodd" d="M17.9909 6.01009L5.39895 10.5631L9.59394 12.9911L13.2929 9.29109C13.4806 9.10358 13.735 8.99829 14.0003 8.99839C14.2656 8.99848 14.5199 9.10395 14.7074 9.29159C14.895 9.47923 15.0002 9.73367 15.0001 9.99894C15.0001 10.2642 14.8946 10.5186 14.7069 10.7061L11.0069 14.4061L13.4369 18.6001L17.9909 6.01009ZM18.3139 3.76609C19.5089 3.33309 20.6669 4.49109 20.2339 5.68609L14.9519 20.2911C14.5179 21.4891 12.8819 21.6351 12.2429 20.5321L9.02594 14.9741L3.46794 11.7571C2.36494 11.1181 2.51095 9.48209 3.70895 9.04809L18.3139 3.76609Z" fill="white"/>
</svg>
