<svg width="24" height="24" viewBox="0 0 24 24" fill="none" xmlns="http://www.w3.org/2000/svg">
<path d="M13.0391 3.58212C12.4391 3.26912 11.6161 3.26412 11.0121 3.57612C8.43411 4.90812 6.09711 6.43412 4.05211 8.12412C3.77811 8.35012 3.59811 8.66512 3.60111 9.02612C3.60411 9.38612 3.78911 9.69712 4.06111 9.92012C6.09011 11.5801 8.42911 13.1071 10.9611 14.4281C11.5611 14.7411 12.3841 14.7461 12.9881 14.4341C15.5661 13.1021 17.9031 11.5761 19.9481 9.88612C20.2221 9.66012 20.4021 9.34512 20.3991 8.98412C20.3961 8.62412 20.2111 8.31312 19.9391 8.09012C17.9101 6.43012 15.5711 4.90312 13.0391 3.58212Z" fill="#1E1E1E"/>
<path d="M20.958 13.731C21.0444 13.6802 21.1197 13.6127 21.1795 13.5323C21.2393 13.452 21.2824 13.3605 21.3063 13.2632C21.3301 13.1659 21.3343 13.0648 21.3185 12.9659C21.3026 12.867 21.2671 12.7723 21.2141 12.6873C21.1611 12.6024 21.0915 12.5289 21.0096 12.4712C20.9277 12.4136 20.8351 12.3729 20.7372 12.3516C20.6394 12.3303 20.5382 12.3289 20.4398 12.3473C20.3413 12.3657 20.2476 12.4037 20.164 12.459L14.056 16.272C13.512 16.612 12.773 16.801 12 16.801C11.227 16.801 10.487 16.611 9.94302 16.272L3.90302 12.502C3.73421 12.3967 3.53049 12.3628 3.33667 12.4077C3.14285 12.4526 2.97481 12.5727 2.86952 12.7415C2.76423 12.9103 2.73031 13.114 2.77523 13.3078C2.82014 13.5017 2.94021 13.6697 3.10902 13.775L9.14902 17.545C9.97802 18.062 11.006 18.301 11.999 18.301C12.994 18.301 14.022 18.061 14.851 17.544L20.958 13.731Z" fill="#1E1E1E"/>
<path d="M20.9581 17.4859C21.0444 17.4351 21.1197 17.3676 21.1795 17.2872C21.2393 17.2069 21.2824 17.1154 21.3063 17.0181C21.3302 16.9208 21.3343 16.8197 21.3185 16.7208C21.3027 16.6219 21.2672 16.5272 21.2141 16.4422C21.1611 16.3572 21.0916 16.2838 21.0097 16.2261C20.9278 16.1684 20.8352 16.1278 20.7373 16.1065C20.6394 16.0852 20.5382 16.0837 20.4398 16.1022C20.3413 16.1206 20.2476 16.1586 20.1641 16.2139L14.8741 19.5169C14.1021 19.9989 13.0681 20.2599 12.0001 20.2599C10.9321 20.2599 9.89805 19.9999 9.12505 19.5169L3.90305 16.2569C3.81947 16.2047 3.72642 16.1695 3.62922 16.1532C3.53202 16.137 3.43257 16.14 3.33655 16.1622C3.24054 16.1844 3.14983 16.2253 3.06962 16.2826C2.98941 16.3398 2.92125 16.4123 2.86905 16.4959C2.81685 16.5795 2.78163 16.6725 2.76539 16.7697C2.74915 16.8669 2.75221 16.9664 2.7744 17.0624C2.7966 17.1584 2.83748 17.2491 2.89473 17.3293C2.95198 17.4095 3.02447 17.4777 3.10805 17.5299L8.33005 20.7899C9.38805 21.4499 10.7111 21.7599 12.0001 21.7599C13.2891 21.7599 14.6111 21.4499 15.6701 20.7889L20.9581 17.4859Z" fill="#1E1E1E"/>
</svg>
