<svg width="512" height="512" viewBox="0 0 512 512" fill="none" xmlns="http://www.w3.org/2000/svg">
<rect width="512" height="512" rx="150" fill="url(#paint0_linear_163_14)"/>
<g clip-path="url(#clip0_163_14)">
<path d="M104.58 202.005C91.6685 214.917 89.6143 236.955 104.111 250.747C119.399 265.302 133.91 273.504 147.732 277.759C161.524 281.985 173.966 282.044 184.707 281.281C188.433 281.017 192.131 280.606 195.505 280.254L199.423 279.857C203.927 279.403 207.713 279.138 211.146 279.256C217.602 279.432 222.253 280.943 226.655 285.345C231.057 289.747 232.568 294.398 232.774 300.824C232.876 304.243 232.627 308.043 232.187 312.562L231.761 316.48C231.36 320.064 231.018 323.654 230.734 327.25C229.956 338.004 230.03 350.461 234.255 364.224C238.481 378.075 246.683 392.586 261.194 407.889C274.986 422.415 297.068 420.346 309.995 407.42L407.391 310.024C420.317 297.098 422.386 275.016 407.86 261.223C392.557 246.712 378.046 238.51 364.239 234.27C350.432 230.03 338.004 229.986 327.264 230.749C323.537 231.013 319.855 231.409 316.48 231.761L312.562 232.157C308.674 232.634 304.756 232.835 300.839 232.759C294.398 232.568 289.747 231.057 285.345 226.655C280.943 222.253 279.447 217.588 279.241 211.161C279.139 207.713 279.403 203.927 279.828 199.423L280.254 195.505C280.62 192.145 281.017 188.433 281.281 184.706C282.058 173.952 282 161.509 277.759 147.732C273.519 133.896 265.317 119.385 250.762 104.096C236.941 89.6289 214.888 91.6977 201.991 104.595L104.58 202.005ZM118.402 235.723C113.589 231.145 113.325 222.605 119.267 216.663L216.663 119.267C222.591 113.34 231.13 113.604 235.708 118.416C248.356 131.71 254.724 143.477 257.907 153.821C261.091 164.165 261.253 173.805 260.578 183.225C260.328 186.585 260.006 189.724 259.654 192.952L259.184 197.384C258.622 202.184 258.397 207.018 258.509 211.851C258.817 221.989 261.576 232.231 270.673 241.328C279.74 250.395 289.982 253.183 300.15 253.52C304.991 253.667 309.921 253.286 314.602 252.831L319.033 252.361C322.246 252.024 325.401 251.686 328.746 251.452C338.166 250.777 347.747 250.938 358.135 254.137C368.479 257.291 380.261 263.644 393.554 276.292C398.367 280.87 398.646 289.424 392.703 295.366L295.322 392.747C289.38 398.69 280.826 398.411 276.248 393.598C263.615 380.29 257.262 368.508 254.093 358.179C250.923 347.791 250.747 338.195 251.437 328.761C251.686 325.401 252.024 322.276 252.347 319.048L252.831 314.602C253.286 309.921 253.682 305.006 253.506 300.135C253.183 289.981 250.425 279.74 241.328 270.643C232.26 261.576 222.004 258.832 211.851 258.48C207.018 258.377 202.184 258.612 197.384 259.184L192.952 259.653C189.739 259.991 186.585 260.328 183.225 260.578C173.805 261.253 164.194 261.091 153.836 257.893C143.492 254.738 131.71 248.356 118.431 235.693M272.14 330.243L272.36 327.675L327.704 272.33L330.257 272.125C338.357 271.538 345.106 271.802 352.09 273.944C357.607 275.646 364.576 278.918 372.984 285.741L285.712 373.013C278.889 364.606 275.632 357.651 273.915 352.119C271.788 345.15 271.509 338.386 272.125 330.287" fill="#1E1E1E"/>
</g>
<defs>
<linearGradient id="paint0_linear_163_14" x1="256" y1="0" x2="256" y2="512" gradientUnits="userSpaceOnUse">
<stop stop-color="#FFED89"/>
<stop offset="1" stop-color="#FFC8C8"/>
</linearGradient>
<clipPath id="clip0_163_14">
<rect width="332" height="332" fill="white" transform="translate(21.2407 256) rotate(-45)"/>
</clipPath>
</defs>
</svg>
