<svg width="214" height="213" viewBox="0 0 214 213" fill="none" xmlns="http://www.w3.org/2000/svg">
<g clip-path="url(#clip0_130_173)">
<path d="M38.5874 82.1048C32.7538 87.9384 31.8257 97.8954 38.3753 104.127C45.2828 110.703 51.839 114.409 58.0837 116.331C64.3151 118.24 69.9366 118.267 74.7891 117.922C76.4729 117.803 78.1434 117.617 79.6681 117.458L81.4381 117.279C83.4732 117.073 85.1835 116.954 86.7348 117.007C89.6516 117.087 91.753 117.769 93.7417 119.758C95.7305 121.747 96.4133 123.848 96.5061 126.752C96.5525 128.297 96.4398 130.013 96.2409 132.055L96.0487 133.825C95.8676 135.445 95.7129 137.067 95.5846 138.691C95.2333 143.55 95.2664 149.178 97.1756 155.396C99.0848 161.654 102.79 168.21 109.347 175.125C115.578 181.688 125.555 180.753 131.395 174.913L175.399 130.908C181.24 125.068 182.174 115.091 175.611 108.86C168.697 102.304 162.141 98.598 155.903 96.6822C149.665 94.7664 144.05 94.7465 139.198 95.0912C137.514 95.2106 135.85 95.3895 134.325 95.5486L132.555 95.7276C130.798 95.9431 129.028 96.034 127.259 95.9994C124.348 95.9133 122.247 95.2304 120.258 93.2417C118.27 91.253 117.593 89.1449 117.501 86.2414C117.454 84.6835 117.573 82.9732 117.766 80.9381L117.958 79.1681C118.124 77.65 118.303 75.9728 118.422 74.289C118.773 69.4299 118.747 63.8084 116.831 57.5836C114.915 51.3324 111.209 44.7762 104.633 37.8686C98.3888 31.3323 88.4252 32.267 82.5982 38.094L38.5874 82.1048ZM44.832 97.3385C42.6577 95.2702 42.5384 91.4121 45.2232 88.7273L89.2273 44.7231C91.9055 42.045 95.7636 42.1643 97.8319 44.3387C103.546 50.3446 106.423 55.6612 107.862 60.3347C109.3 65.0083 109.373 69.3636 109.068 73.6195C108.956 75.1376 108.81 76.5562 108.651 78.0146L108.439 80.0166C108.185 82.1856 108.083 84.3697 108.134 86.5529C108.273 91.1336 109.519 95.7608 113.629 99.8708C117.726 103.968 122.353 105.227 126.947 105.38C129.135 105.446 131.362 105.274 133.477 105.068L135.479 104.856C136.931 104.703 138.356 104.551 139.867 104.445C144.123 104.14 148.452 104.213 153.145 105.658C157.819 107.083 163.142 109.954 169.148 115.668C171.322 117.736 171.448 121.601 168.764 124.286L124.766 168.283C122.081 170.968 118.216 170.842 116.148 168.668C110.441 162.655 107.57 157.332 106.138 152.665C104.706 147.972 104.627 143.636 104.938 139.374C105.051 137.856 105.204 136.444 105.349 134.985L105.568 132.977C105.774 130.862 105.953 128.641 105.873 126.44C105.727 121.853 104.481 117.226 100.371 113.116C96.2741 109.019 91.6403 107.779 87.053 107.62C84.8694 107.574 82.6853 107.68 80.5166 107.938L78.5146 108.151C77.0629 108.303 75.6376 108.456 74.1195 108.568C69.8636 108.873 65.5216 108.8 60.8414 107.355C56.1679 105.93 50.8447 103.046 44.8453 97.3253M114.292 140.043L114.391 138.883L139.397 113.878L140.55 113.785C144.209 113.52 147.259 113.64 150.414 114.607C152.907 115.376 156.056 116.855 159.854 119.937L120.424 159.367C117.341 155.569 115.87 152.427 115.094 149.927C114.133 146.779 114.007 143.723 114.285 140.063" fill="#1E1E1E"/>
</g>
<defs>
<clipPath id="clip0_130_173">
<rect width="150" height="150" fill="white" transform="translate(0.93399 106.5) rotate(-45)"/>
</clipPath>
</defs>
</svg>
